<svg width="760" height="520" viewBox="0 0 760 520" fill="none" xmlns="http://www.w3.org/2000/svg" role="img" aria-labelledby="title desc">
  <title id="title">Gerätekompatibilität</title>
  <desc id="desc">Illustration mit Smart TV, Tablet und Smartphone für IPTV Nutzung auf verschiedenen Geräten.</desc>
  <rect width="760" height="520" rx="36" fill="#F8FAFC"/>
  <circle cx="118" cy="108" r="70" fill="#DBEAFE"/>
  <circle cx="645" cy="412" r="78" fill="#DCFCE7"/>
  <rect x="120" y="82" width="520" height="302" rx="28" fill="#0F172A"/>
  <rect x="156" y="122" width="448" height="222" rx="18" fill="#2563EB"/>
  <path d="M346 193L444 244L346 295V193Z" fill="white"/>
  <rect x="318" y="386" width="124" height="36" rx="8" fill="#334155"/>
  <rect x="256" y="422" width="248" height="22" rx="11" fill="#64748B"/>
  <rect x="98" y="258" width="154" height="204" rx="24" fill="#1E293B"/>
  <rect x="115" y="290" width="120" height="132" rx="14" fill="#E0F2FE"/>
  <rect x="144" y="333" width="62" height="14" rx="7" fill="#0EA5E9"/>
  <circle cx="175" cy="443" r="9" fill="#94A3B8"/>
  <rect x="538" y="224" width="96" height="196" rx="24" fill="#111827"/>
  <rect x="552" y="258" width="68" height="122" rx="12" fill="#ECFDF5"/>
  <path d="M578 301L602 319L578 337V301Z" fill="#22C55E"/>
  <circle cx="586" cy="397" r="7" fill="#94A3B8"/>
</svg>
