<svg width="900" height="620" viewBox="0 0 900 620" fill="none" xmlns="http://www.w3.org/2000/svg" role="img" aria-labelledby="title desc">
  <title id="title">IPTV Streaming Dashboard</title>
  <desc id="desc">Illustration eines modernen IPTV Dashboards auf einem Fernseher mit Kanalkarten und Streaming-Statistiken.</desc>
  <defs>
    <linearGradient id="bg" x1="90" y1="40" x2="800" y2="570" gradientUnits="userSpaceOnUse">
      <stop stop-color="#1D4ED8"/>
      <stop offset="1" stop-color="#0F172A"/>
    </linearGradient>
    <linearGradient id="screen" x1="205" y1="125" x2="670" y2="445" gradientUnits="userSpaceOnUse">
      <stop stop-color="#F8FAFC"/>
      <stop offset="1" stop-color="#DBEAFE"/>
    </linearGradient>
    <filter id="shadow" x="60" y="20" width="780" height="570" filterUnits="userSpaceOnUse" color-interpolation-filters="sRGB">
      <feDropShadow dx="0" dy="28" stdDeviation="28" flood-color="#0F172A" flood-opacity="0.28"/>
    </filter>
  </defs>
  <rect width="900" height="620" rx="44" fill="#EFF6FF"/>
  <circle cx="140" cy="126" r="76" fill="#BFDBFE" opacity="0.65"/>
  <circle cx="782" cy="488" r="88" fill="#93C5FD" opacity="0.45"/>
  <g filter="url(#shadow)">
    <rect x="108" y="68" width="684" height="438" rx="34" fill="url(#bg)"/>
    <rect x="148" y="112" width="604" height="342" rx="22" fill="url(#screen)"/>
    <rect x="148" y="112" width="604" height="70" rx="22" fill="#0F172A"/>
    <circle cx="194" cy="147" r="12" fill="#22C55E"/>
    <circle cx="232" cy="147" r="12" fill="#FACC15"/>
    <circle cx="270" cy="147" r="12" fill="#FB7185"/>
    <rect x="602" y="135" width="106" height="24" rx="12" fill="#38BDF8" opacity="0.95"/>
    <rect x="185" y="220" width="190" height="146" rx="20" fill="#2563EB"/>
    <path d="M260 260L326 293L260 326V260Z" fill="white"/>
    <rect x="405" y="220" width="122" height="62" rx="15" fill="white"/>
    <rect x="425" y="244" width="82" height="14" rx="7" fill="#60A5FA"/>
    <rect x="552" y="220" width="122" height="62" rx="15" fill="white"/>
    <rect x="572" y="244" width="82" height="14" rx="7" fill="#34D399"/>
    <rect x="405" y="306" width="269" height="60" rx="15" fill="white"/>
    <rect x="428" y="329" width="120" height="14" rx="7" fill="#93C5FD"/>
    <rect x="570" y="329" width="72" height="14" rx="7" fill="#CBD5E1"/>
    <rect x="185" y="396" width="489" height="24" rx="12" fill="#BFDBFE"/>
    <rect x="185" y="396" width="330" height="24" rx="12" fill="#2563EB"/>
  </g>
  <rect x="392" y="506" width="116" height="42" rx="8" fill="#1E293B"/>
  <rect x="310" y="548" width="280" height="28" rx="14" fill="#334155"/>
</svg>
